<svg xmlns="http://www.w3.org/2000/svg" width="500" height="500" style="width:100%;height:100%;transform:translate3d(0,0,0);content-visibility:visible" viewBox="0 0 500 500"><defs><clipPath id="e"><path d="M0 0h500v500H0z"/></clipPath><clipPath id="c"><path d="M0 0h500v500H0z"/></clipPath><mask id="d" mask-type="alpha"><use xmlns:ns1="http://www.w3.org/1999/xlink" ns1:href="#a"/></mask><mask id="f" mask-type="alpha"><use xmlns:ns2="http://www.w3.org/1999/xlink" ns2:href="#b"/></mask><g id="b" clip-path="url(#c)" style="display:block"><g mask="url(#d)" style="display:none"><path/><path fill-opacity="0" style="mix-blend-mode:soft-light"/></g><g style="display:block"><path fill-opacity="0" stroke="#121331" stroke-linecap="round" stroke-linejoin="round" stroke-width="12" d="m302.17 410.289-19.938-17.164-7.594-29.05h-49.276l-7.595 29.05-19.937 17.164h104.34z"/><path fill-opacity="0" stroke="#121331" stroke-linecap="round" stroke-linejoin="round" stroke-width="12" d="M412.097 305.162H87.903V116.078h324.194v189.084zm6.476 59.01H81.427c-10.729 0-19.427-8.698-19.427-19.427V109.601c0-10.729 8.698-19.427 19.427-19.427h337.146c10.729 0 19.427 8.698 19.427 19.427v235.144c0 10.729-8.698 19.427-19.427 19.427z"/><path fill="#121331" d="M261.549 334.764c0 6.378-5.171 11.549-11.549 11.549-6.378 0-11.549-5.171-11.549-11.549 0-6.378 5.171-11.549 11.549-11.549 6.378 0 11.549 5.171 11.549 11.549z"/></g></g><g id="a" style="display:block"><path fill="red" d="M412.097 305.162H87.903V116.078h324.194v189.084z"/><path fill-opacity="0" stroke="#121331" stroke-linecap="round" stroke-linejoin="round" stroke-width="12" d="M412.097 305.162H87.903V116.078h324.194v189.084z"/></g><filter id="g" width="300%" height="300%" x="-100%" y="-100%"><feGaussianBlur result="filter_result_0" stdDeviation="52.5 52.5"/></filter></defs><g clip-path="url(#e)"><g mask="url(#f)" style="display:block"><g fill="#8E80FF" filter="url(#g)" transform="rotate(-94 262.075 8.435) scale(2.4)"><path d="M0-250c137.975 0 250 112.025 250 250S137.975 250 0 250-250 137.975-250 0-137.975-250 0-250z" class="design"/><path d="M113.242-295.384c97.478 0 176.5 79.022 176.5 176.5s-79.022 176.5-176.5 176.5c-43.948 0-74.396-34.057-105.29-60.631-37.631-32.369-71.21-62.338-71.21-115.869 0-97.478 79.022-176.5 176.5-176.5z" class="design"/></g></g><path style="display:none"/></g></svg>